<?xml version="1.0" encoding="utf-8"?>
<!-- Generator: Adobe Illustrator 19.0.0, SVG Export Plug-In . SVG Version: 6.00 Build 0)  -->
<svg version="1.1" id="Layer_1" xmlns="http://www.w3.org/2000/svg" xmlns:xlink="http://www.w3.org/1999/xlink" x="0px" y="0px"
	 viewBox="0 0 152 152" style="enable-background:new 0 0 152 152;" xml:space="preserve">
<style type="text/css">
	.st0{opacity:0.2;fill:#FFFFFF;}
	.st1{fill:#BD2026;}
	.st2{opacity:0.2;fill:#BE3A26;}
	.st3{opacity:0.1;fill:#FFFFFF;}
	.st4{fill:#FFFFFF;}
	.st5{opacity:0.2;}
	.st6{fill:#202020;}
</style>
<g id="XMLID_480_">
	<g id="XMLID_474_">
		<path id="XMLID_479_" class="st0" d="M140.2,0h-128c-6.6,0-12,5.4-12,12v1c0-6.6,5.4-12,12-12h128c6.6,0,12,5.4,12,12v-1
			C152.2,5.4,146.8,0,140.2,0z"/>
		<path id="XMLID_478_" class="st1" d="M140.2,152h-128c-6.6,0-12-5.4-12-12V12c0-6.6,5.4-12,12-12h128c6.6,0,12,5.4,12,12v128
			C152.2,146.6,146.8,152,140.2,152z"/>
		<path id="XMLID_477_" class="st2" d="M140.2,151h-128c-6.6,0-12-5.4-12-12v1c0,6.6,5.4,12,12,12h128c6.6,0,12-5.4,12-12v-1
			C152.2,145.6,146.8,151,140.2,151z"/>
		<path id="XMLID_476_" class="st0" d="M140.2,0h-128c-6.6,0-12,5.4-12,12v1c0-6.6,5.4-12,12-12h128c6.6,0,12,5.4,12,12v-1
			C152.2,5.4,146.8,0,140.2,0z"/>
		<path id="XMLID_475_" class="st3" d="M140.2,152h-64V0l64,0c6.6,0,12,5.4,12,12v128C152.2,146.6,146.8,152,140.2,152z"/>
	</g>
	<path id="XMLID_473_" class="st4" d="M69.8,90.4c-0.6,2.2-1.1,4.3-1.6,6.4c-1.1,4.1-1.8,8.3-4,12.1c-1.7,2.9-3.6,5.7-5.5,8.5
		c-0.2,0.2-0.6,0.5-0.8,0.5c-0.2,0-0.5-0.5-0.5-0.8c-0.7-5-1.1-10-0.2-15c0.7-4,1.7-7.8,2.6-11.8c1.1-4.8,2.3-9.5,3.3-14.3
		c0.1-0.4,0-0.9-0.1-1.3c-1.4-4.1-1.7-8.2-0.1-12.2c1.1-2.8,2.9-5.1,6-5.9c4.3-1.1,7.9,1.7,7.8,6.4c-0.1,2.3-0.7,4.7-1.3,7
		c-0.8,3.2-1.9,6.3-2.7,9.6c-1,4.5,2.1,8.4,6.7,8.6c3.8,0.1,6.7-1.6,9-4.5c2.6-3.2,4-6.9,4.9-10.9c0.8-3.9,1.3-7.8,0.7-11.8
		c-1.1-7.4-5.5-12.1-12.7-13.8c-7-1.7-13.7-0.7-19.7,3.7c-6.6,4.8-10,14.1-8,21.6c0.5,1.8,1.3,3.4,2.5,4.8c0.7,0.8,0.9,1.7,0.6,2.8
		c-0.3,1-0.5,2.1-0.8,3.2c-0.4,1.5-1.2,1.9-2.6,1.3c-4-1.8-6.4-4.9-7.7-9c-2.8-8.8-1.2-16.9,4.2-24.3c4.9-6.7,11.8-10.5,19.9-11.9
		c5.8-1,11.6-0.9,17.2,1.1c9.2,3.3,15.4,9.5,17.8,19.2c1.1,4.3,0.7,8.6-0.1,13c-0.9,5.2-2.7,10.1-5.9,14.3
		c-4.5,5.9-10.3,9.1-17.7,9.1C76.5,95.9,72.6,94.3,69.8,90.4z"/>
	<g id="XMLID_467_" class="st5">
		<path id="XMLID_472_" class="st4" d="M59.8,91.3c1.1-4.8,2.3-9.5,3.3-14.3c0.1-0.3,0.1-0.6,0-1c-1.1,4.8-2.2,9.5-3.3,14.3
			c-0.9,3.9-1.9,7.8-2.6,11.8c-0.4,2.2-0.5,4.3-0.5,6.5c0-1.8,0.2-3.7,0.5-5.5C57.9,99.1,58.9,95.2,59.8,91.3z"/>
		<path id="XMLID_471_" class="st4" d="M88.4,83.6c-2.3,2.8-5.2,4.6-9,4.5c-3.8-0.1-6.6-2.9-6.9-6.4c-0.3,3.9,2.7,7.2,6.9,7.4
			c3.8,0.1,6.7-1.6,9-4.5c2.6-3.2,4-6.9,4.9-10.9c0.6-2.8,1-5.5,1-8.3c-0.1,2.5-0.4,4.9-1,7.3C92.5,76.7,91,80.4,88.4,83.6z"/>
		<path id="XMLID_470_" class="st4" d="M49.8,52.1c4.9-6.7,11.8-10.5,19.9-11.9c5.8-1,11.6-0.9,17.2,1.1c9.2,3.3,15.4,9.5,17.8,19.2
			c0.4,1.6,0.6,3.2,0.6,4.9c0-2-0.2-3.9-0.6-5.9c-2.4-9.7-8.6-15.9-17.8-19.2c-5.6-2-11.4-2.1-17.2-1.1c-8.1,1.4-15,5.1-19.9,11.9
			c-3.8,5.1-5.7,10.7-5.5,16.5C44.3,62.2,46.2,57,49.8,52.1z"/>
		<path id="XMLID_469_" class="st4" d="M68.9,57.5c4.1-1.1,7.5,1.4,7.7,5.6c0-0.1,0-0.1,0-0.2c0.1-4.7-3.4-7.5-7.8-6.4
			c-3.1,0.8-4.9,3-6,5.9c-0.8,2.1-1.1,4.3-1.1,6.4c0-1.8,0.4-3.6,1.1-5.4C64,60.6,65.9,58.3,68.9,57.5z"/>
		<path id="XMLID_468_" class="st4" d="M53.6,73.4c0.5,1.8,1.3,3.4,2.5,4.8c0.4,0.4,0.6,0.8,0.7,1.3c0.1-0.8-0.1-1.6-0.7-2.3
			c-1.2-1.4-2-3-2.5-4.8c-0.3-1.3-0.5-2.6-0.5-3.9C53,70.1,53.2,71.8,53.6,73.4z"/>
	</g>
	<g id="XMLID_404_" class="st5">
		<path id="XMLID_466_" class="st6" d="M63,74.6c-0.7-1.9-1.1-3.9-1.2-5.8c-0.1,2.3,0.4,4.6,1.2,6.8c0,0.1,0.1,0.3,0.1,0.4
			c0,0,0,0,0,0C63.2,75.6,63.2,75,63,74.6z"/>
		<path id="XMLID_465_" class="st6" d="M75.4,70.9c0.6-2.3,1.2-4.6,1.3-7c0-0.3,0-0.5,0-0.8c-0.1,2.3-0.7,4.5-1.2,6.8
			c-0.8,3.2-1.9,6.3-2.7,9.6c-0.2,0.8-0.2,1.5-0.2,2.2c0-0.4,0.1-0.8,0.2-1.2C73.5,77.3,74.6,74.1,75.4,70.9z"/>
		<path id="XMLID_464_" class="st6" d="M56.8,79.4c0,0.2,0,0.3-0.1,0.5c-0.3,1-0.5,2.1-0.8,3.2c-0.4,1.5-1.2,1.9-2.6,1.3
			c-4-1.8-6.4-4.9-7.7-9c-0.8-2.6-1.3-5.2-1.3-7.7c0,2.8,0.4,5.7,1.3,8.7c1.3,4.1,3.7,7.2,7.7,9c1.4,0.6,2.2,0.2,2.6-1.3
			c0.3-1.1,0.5-2.1,0.8-3.2C56.8,80.4,56.9,79.9,56.8,79.4z"/>
		<path id="XMLID_463_" class="st6" d="M104.7,72.5c-0.9,5.2-2.7,10.1-5.9,14.3c-4.5,5.9-10.3,9.1-17.7,9.1c-4.5,0-8.4-1.6-11.2-5.5
			c-0.6,2.2-1.1,4.3-1.6,6.4c-1.1,4.1-1.8,8.3-4,12.1c-1.7,2.9-3.6,5.7-5.5,8.5c-0.2,0.2-0.6,0.5-0.8,0.5c-0.2,0-0.5-0.5-0.5-0.8
			c-0.4-2.8-0.7-5.7-0.7-8.5c-0.1,3.2,0.2,6.3,0.7,9.5c0,0.3,0.3,0.7,0.5,0.8c0.2,0.1,0.7-0.2,0.8-0.5c1.9-2.8,3.8-5.6,5.5-8.5
			c2.2-3.7,3-7.9,4-12.1c0.5-2.1,1.1-4.2,1.6-6.4c2.8,3.9,6.7,5.5,11.2,5.5c7.4,0,13.3-3.2,17.7-9.1c3.2-4.2,5-9.1,5.9-14.3
			c0.5-2.7,0.8-5.4,0.7-8.1C105.4,67.7,105.1,70.1,104.7,72.5z"/>
		<path id="XMLID_437_" class="st6" d="M94,60.9c-1.1-7.4-5.5-12.1-12.7-13.8c-7-1.7-13.7-0.7-19.7,3.7c-5.5,4-8.7,11.1-8.5,17.7
			c0.2-6.3,3.4-12.9,8.5-16.7c6-4.4,12.7-5.3,19.7-3.7c7.2,1.7,11.6,6.3,12.7,13.8c0.2,1.2,0.3,2.3,0.3,3.5
			C94.3,63.9,94.2,62.4,94,60.9z"/>
	</g>
</g>
</svg>
