<?xml version="1.0" encoding="utf-8"?>
<!-- Generator: Adobe Illustrator 19.0.0, SVG Export Plug-In . SVG Version: 6.00 Build 0)  -->
<svg version="1.1" id="Layer_1" xmlns="http://www.w3.org/2000/svg" xmlns:xlink="http://www.w3.org/1999/xlink" x="0px" y="0px"
	 viewBox="0 0 152 152" style="enable-background:new 0 0 152 152;" xml:space="preserve">
<style type="text/css">
	.st0{fill:#9B51A0;}
	.st1{opacity:0.2;fill:#2D3079;}
	.st2{opacity:0.2;fill:#FFFFFF;}
	.st3{opacity:0.1;fill:#FFFFFF;}
	.st4{fill:#FFFFFF;}
	.st5{opacity:0.2;}
	.st6{opacity:0.2;fill:#202020;}
	.st7{fill:#202020;}
</style>
<g id="XMLID_23_">
	<path id="XMLID_28_" class="st0" d="M140,152H12c-6.6,0-12-5.4-12-12V12C0,5.4,5.4,0,12,0h128c6.6,0,12,5.4,12,12v128
		C152,146.6,146.6,152,140,152z"/>
	<path id="XMLID_27_" class="st1" d="M140,151H12c-6.6,0-12-5.4-12-12v1c0,6.6,5.4,12,12,12h128c6.6,0,12-5.4,12-12v-1
		C152,145.6,146.6,151,140,151z"/>
	<path id="XMLID_26_" class="st2" d="M140,0H12C5.4,0,0,5.4,0,12v1C0,6.4,5.4,1,12,1h128c6.6,0,12,5.4,12,12v-1
		C152,5.4,146.6,0,140,0z"/>
	<path id="XMLID_25_" class="st3" d="M140,152H76V0l64,0c6.6,0,12,5.4,12,12v128C152,146.6,146.6,152,140,152z"/>
</g>
<g id="XMLID_17_">
	<path id="XMLID_21_" class="st4" d="M75.8,43.6c10.6,0,11.8,0,16,0.2c3.9,0.2,5.9,0.8,7.3,1.4c1.8,0.7,3.2,1.6,4.5,3
		c1.4,1.4,2.2,2.7,3,4.5c0.5,1.4,1.2,3.5,1.4,7.3c0.2,4.2,0.2,5.4,0.2,16s0,11.8-0.2,16c-0.2,3.9-0.8,5.9-1.4,7.3
		c-0.7,1.8-1.6,3.2-3,4.5c-1.4,1.4-2.7,2.2-4.5,3c-1.4,0.5-3.5,1.2-7.3,1.4c-4.2,0.2-5.4,0.2-16,0.2c-10.6,0-11.8,0-16-0.2
		c-3.9-0.2-5.9-0.8-7.3-1.4c-1.8-0.7-3.2-1.6-4.5-3c-1.4-1.4-2.2-2.7-3-4.5c-0.5-1.4-1.2-3.5-1.4-7.3c-0.2-4.2-0.2-5.4-0.2-16
		s0-11.8,0.2-16c0.2-3.9,0.8-5.9,1.4-7.3c0.7-1.8,1.6-3.2,3-4.5c1.4-1.4,2.7-2.2,4.5-3c1.4-0.5,3.5-1.2,7.3-1.4
		C64,43.6,65.2,43.6,75.8,43.6 M75.8,36.5c-10.7,0-12.1,0-16.3,0.2c-4.2,0.2-7.1,0.9-9.6,1.8c-2.6,1-4.8,2.4-7,4.6
		c-2.2,2.2-3.5,4.4-4.6,7c-1,2.5-1.6,5.4-1.8,9.6c-0.2,4.2-0.2,5.6-0.2,16.3c0,10.7,0,12.1,0.2,16.3c0.2,4.2,0.9,7.1,1.8,9.6
		c1,2.6,2.4,4.8,4.6,7c2.2,2.2,4.4,3.5,7,4.6c2.5,1,5.4,1.6,9.6,1.8c4.2,0.2,5.6,0.2,16.3,0.2c10.7,0,12.1,0,16.3-0.2
		c4.2-0.2,7.1-0.9,9.6-1.8c2.6-1,4.8-2.4,7-4.6c2.2-2.2,3.5-4.4,4.6-7c1-2.5,1.6-5.4,1.8-9.6c0.2-4.2,0.2-5.6,0.2-16.3
		s0-12.1-0.2-16.3c-0.2-4.2-0.9-7.1-1.8-9.6c-1-2.6-2.4-4.8-4.6-7c-2.2-2.2-4.4-3.5-7-4.6c-2.5-1-5.4-1.6-9.6-1.8
		C87.8,36.5,86.5,36.5,75.8,36.5L75.8,36.5z"/>
	<path id="XMLID_19_" class="st4" d="M75.8,55.7c-11.2,0-20.3,9.1-20.3,20.3s9.1,20.3,20.3,20.3S96.1,87.2,96.1,76
		S87,55.7,75.8,55.7z M75.8,89.2c-7.3,0-13.2-5.9-13.2-13.2s5.9-13.2,13.2-13.2c7.3,0,13.2,5.9,13.2,13.2S83,89.2,75.8,89.2z"/>
	<circle id="XMLID_18_" class="st4" cx="96.9" cy="54.9" r="4.7"/>
</g>
<g id="XMLID_14_" class="st5">
	<path id="XMLID_16_" class="st4" d="M36.5,60.7c0.2-4.2,0.9-7.1,1.8-9.6c1-2.6,2.4-4.8,4.6-7c2.2-2.2,4.4-3.5,7-4.6
		c2.5-1,5.4-1.6,9.6-1.8c4.2-0.2,5.6-0.2,16.3-0.2c10.7,0,12.1,0,16.3,0.2c4.2,0.2,7.1,0.9,9.6,1.8c2.6,1,4.8,2.4,7,4.6
		c2.2,2.2,3.5,4.4,4.6,7c1,2.5,1.6,5.4,1.8,9.6c0.2,4.1,0.2,5.5,0.2,15.8c0-0.2,0-0.3,0-0.5c0-10.7,0-12.1-0.2-16.3
		c-0.2-4.2-0.9-7.1-1.8-9.6c-1-2.6-2.4-4.8-4.6-7c-2.2-2.2-4.4-3.5-7-4.6c-2.5-1-5.4-1.6-9.6-1.8c-4.2-0.2-5.6-0.2-16.3-0.2
		c-10.7,0-12.1,0-16.3,0.2c-4.2,0.2-7.1,0.9-9.6,1.8c-2.6,1-4.8,2.4-7,4.6c-2.2,2.2-3.5,4.4-4.6,7c-1,2.5-1.6,5.4-1.8,9.6
		c-0.2,4.2-0.2,5.6-0.2,16.3c0,0.2,0,0.3,0,0.5C36.2,66.2,36.3,64.8,36.5,60.7z"/>
	<path id="XMLID_15_" class="st4" d="M43.6,93c0.2,3.9,0.8,5.9,1.4,7.3c0.7,1.8,1.6,3.2,3,4.5s2.7,2.2,4.5,3
		c1.4,0.5,3.5,1.2,7.3,1.4c4.2,0.2,5.4,0.2,16,0.2c10.6,0,11.8,0,16-0.2c3.9-0.2,5.9-0.8,7.3-1.4c1.8-0.7,3.2-1.6,4.5-3
		c1.4-1.4,2.2-2.7,3-4.5c0.5-1.4,1.2-3.5,1.4-7.3c0.2-4.2,0.2-5.4,0.2-16c0-0.2,0-0.3,0-0.5c0,10.1,0,11.4-0.2,15.5
		c-0.2,3.9-0.8,5.9-1.4,7.3c-0.7,1.8-1.6,3.2-3,4.5c-1.4,1.4-2.7,2.2-4.5,3c-1.4,0.5-3.5,1.2-7.3,1.4c-4.2,0.2-5.4,0.2-16,0.2
		c-10.6,0-11.8,0-16-0.2c-3.9-0.2-5.9-0.8-7.3-1.4c-1.8-0.7-3.2-1.6-4.5-3s-2.2-2.7-3-4.5c-0.5-1.4-1.2-3.5-1.4-7.3
		c-0.2-4.1-0.2-5.4-0.2-15.5c0,0.2,0,0.3,0,0.5C43.3,87.5,43.4,88.8,43.6,93z"/>
</g>
<path id="XMLID_24_" class="st6" d="M115.3,73.7C115.3,73.7,115.3,73.7,115.3,73.7c0-0.6,0-1.1,0-1.6c0-0.1,0-0.2,0-0.2
	c0-0.4,0-0.8,0-1.2c0-0.1,0-0.1,0-0.2c0-0.4,0-0.8,0-1.1c0,0,0-0.1,0-0.1c0-0.4,0-0.7,0-1c0,0,0,0,0,0c0-4-0.1-5.6-0.2-8.4
	c-0.2-4.2-0.9-7.1-1.8-9.6c-1-2.6-2.4-4.8-4.6-7c-2.2-2.2-4.4-3.5-7-4.6c-2.5-1-5.4-1.6-9.6-1.8c-4.2-0.2-5.6-0.2-16.3-0.2
	c-10.7,0-12.1,0-16.3,0.2c-4.2,0.2-7.1,0.9-9.6,1.8c-2.6,1-4.8,2.4-7,4.6c-2.2,2.2-3.5,4.4-4.6,7c-1,2.5-1.6,5.4-1.8,9.6
	c-0.1,2.1-0.2,3.5-0.2,5.6c0,0,0,0,0,0c0,0.8,0,1.7,0,2.8c0,0,0,0,0,0c0,0.3,0,0.7,0,1c0,0,0,0.1,0,0.1c0,0.3,0,0.7,0,1.1
	c0,0.1,0,0.1,0,0.2c0,0.4,0,0.8,0,1.2c0,0.1,0,0.2,0,0.2c0,0.5,0,1,0,1.5c0,0,0,0,0,0c0,0.5,0,1.1,0,1.7c0,0.2,0,0.4,0,0.6
	c0,0.2,0,0.3,0,0.5c0-10.3,0-11.7,0.2-15.8c0.2-4.2,0.9-7.1,1.8-9.6c1-2.6,2.4-4.8,4.6-7c2.2-2.2,4.4-3.5,7-4.6
	c2.5-1,5.4-1.6,9.6-1.8c4.2-0.2,5.6-0.2,16.3-0.2c10.7,0,12.1,0,16.3,0.2c4.2,0.2,7.1,0.9,9.6,1.8c2.6,1,4.8,2.4,7,4.6
	c2.2,2.2,3.5,4.4,4.6,7c1,2.5,1.6,5.4,1.8,9.6c0.2,4.1,0.2,5.5,0.2,15.8c0-0.2,0-0.3,0-0.5c0-0.2,0-0.4,0-0.6
	C115.3,74.8,115.3,74.2,115.3,73.7z"/>
<g id="XMLID_2_" class="st5">
	<path id="XMLID_7_" class="st7" d="M107.9,60c-0.2-3.9-0.8-5.9-1.4-7.3c-0.7-1.8-1.6-3.2-3-4.5c-1.4-1.4-2.7-2.2-4.5-3
		c-1.4-0.5-3.5-1.2-7.3-1.4c-4.2-0.2-5.4-0.2-16-0.2c-10.6,0-11.8,0-16,0.2c-3.9,0.2-5.9,0.8-7.3,1.4c-1.8,0.7-3.2,1.6-4.5,3
		c-1.4,1.4-2.2,2.7-3,4.5c-0.5,1.4-1.2,3.5-1.4,7.3c-0.2,4.2-0.2,5.4-0.2,16c0,0.2,0,0.3,0,0.5c0-10.1,0-11.4,0.2-15.5
		c0.2-3.9,0.8-5.9,1.4-7.3c0.7-1.8,1.6-3.2,3-4.5c1.4-1.4,2.7-2.2,4.5-3c1.4-0.5,3.5-1.2,7.3-1.4c4.2-0.2,5.4-0.2,16-0.2
		c10.6,0,11.8,0,16,0.2c3.9,0.2,5.9,0.8,7.3,1.4c1.8,0.7,3.2,1.6,4.5,3c1.4,1.4,2.2,2.7,3,4.5c0.5,1.4,1.2,3.5,1.4,7.3
		c0.2,4.1,0.2,5.4,0.2,15.5c0-0.2,0-0.3,0-0.5C108.2,65.4,108.1,64.2,107.9,60z"/>
	<path id="XMLID_3_" class="st7" d="M115.1,92.3c-0.2,4.2-0.9,7.1-1.8,9.6c-1,2.6-2.4,4.8-4.6,7c-2.2,2.2-4.4,3.5-7,4.6
		c-2.5,1-5.4,1.6-9.6,1.8c-4.2,0.2-5.6,0.2-16.3,0.2c-10.7,0-12.1,0-16.3-0.2c-4.2-0.2-7.1-0.9-9.6-1.8c-2.6-1-4.8-2.4-7-4.6
		c-2.2-2.2-3.5-4.4-4.6-7c-1-2.5-1.6-5.4-1.8-9.6c-0.2-4.1-0.2-5.5-0.2-15.8c0,0.2,0,0.3,0,0.5c0,10.7,0,12.1,0.2,16.3
		c0.2,4.2,0.9,7.1,1.8,9.6c1,2.6,2.4,4.8,4.6,7c2.2,2.2,4.4,3.5,7,4.6c2.5,1,5.4,1.6,9.6,1.8c4.2,0.2,5.6,0.2,16.3,0.2
		c10.7,0,12.1,0,16.3-0.2c4.2-0.2,7.1-0.9,9.6-1.8c2.6-1,4.8-2.4,7-4.6c2.2-2.2,3.5-4.4,4.6-7c1-2.5,1.6-5.4,1.8-9.6
		c0.2-4.2,0.2-5.6,0.2-16.3c0-0.2,0-0.3,0-0.5C115.3,86.8,115.2,88.1,115.1,92.3z"/>
</g>
</svg>
